<svg id="Leaderboard_Icon" data-name="Leaderboard Icon" xmlns="http://www.w3.org/2000/svg" width="130.883" height="102.102" viewBox="0 0 130.883 102.102">
  <path id="Path_17420" data-name="Path 17420" d="M0,0H39.463a4.189,4.189,0,0,1,4.189,4.189V34.172H0Z" transform="translate(87.231 67.93)" fill="#fff"/>
  <path id="Path_17419" data-name="Path 17419" d="M43.579,57.248H0V5.034A5.011,5.011,0,0,1,.86,2.219,5.049,5.049,0,0,1,3.075.4,5,5,0,0,1,5.034,0H38.545a5.01,5.01,0,0,1,2.815.86,5.049,5.049,0,0,1,1.824,2.215,5,5,0,0,1,.4,1.959V57.248ZM10.133,30.625a1.76,1.76,0,0,0-1.48.765,1.893,1.893,0,0,0-.333,1.024,1.766,1.766,0,0,0,.749,1.495l5.073,3.684a1.811,1.811,0,0,1,.657,2.023L12.866,45.58a1.812,1.812,0,0,0-.07.873,1.746,1.746,0,0,0,.313.739,1.885,1.885,0,0,0,.648.559,1.81,1.81,0,0,0,.835.209,1.728,1.728,0,0,0,.536-.085,1.878,1.878,0,0,0,.524-.27l5.073-3.684a1.812,1.812,0,0,1,2.129,0L27.927,47.6a1.878,1.878,0,0,0,.524.27,1.728,1.728,0,0,0,.536.085,1.81,1.81,0,0,0,.835-.209,1.884,1.884,0,0,0,.648-.559,1.746,1.746,0,0,0,.313-.739,1.812,1.812,0,0,0-.07-.873L28.78,39.616a1.808,1.808,0,0,1,.657-2.023l5.073-3.684a1.766,1.766,0,0,0,.749-1.495,1.893,1.893,0,0,0-.333-1.024,1.76,1.76,0,0,0-1.48-.765H27.172a1.809,1.809,0,0,1-1.721-1.246l-1.94-5.971a1.762,1.762,0,0,0-1.185-1.173,1.879,1.879,0,0,0-1.073,0,1.762,1.762,0,0,0-1.185,1.173l-1.94,5.971a1.8,1.8,0,0,1-.657.9,1.812,1.812,0,0,1-1.064.345Z" transform="translate(43.689 44.818)" fill="#fff"/>
  <path id="Path_17421" data-name="Path 17421" d="M5.071,0H43.726V34.172H0V5.071A5.071,5.071,0,0,1,5.071,0Z" transform="translate(0 67.93)" fill="#fff"/>
  <path id="Path_17416" data-name="Path 17416" d="M0,0H36.237V36.237H0Z" transform="translate(47.36 62.926)" fill="none"/>
  <g id="trophy" transform="translate(39.307)">
    <path id="Path_17417" data-name="Path 17417" d="M45.437,8.362H38.895V6.181A2.187,2.187,0,0,0,36.714,4H14.9a2.187,2.187,0,0,0-2.181,2.181V8.362H6.181A2.187,2.187,0,0,0,4,10.543v6.543a8.721,8.721,0,0,0,8.724,8.724h3.359a13.113,13.113,0,0,0,7.546,4.166v4.558H21.447A6.548,6.548,0,0,0,14.9,41.076v4.362a2.187,2.187,0,0,0,2.181,2.181H34.533a2.187,2.187,0,0,0,2.181-2.181V41.076a6.548,6.548,0,0,0-6.543-6.543H27.99V29.975a13.113,13.113,0,0,0,7.546-4.166h3.359a8.721,8.721,0,0,0,8.724-8.724V10.543A2.187,2.187,0,0,0,45.437,8.362ZM12.724,21.447a4.361,4.361,0,0,1-4.362-4.362V12.724h4.362v4.362a12.933,12.933,0,0,0,.763,4.362ZM30.171,38.895a2.187,2.187,0,0,1,2.181,2.181v2.181H19.266V41.076a2.187,2.187,0,0,1,2.181-2.181Zm4.362-21.809a8.724,8.724,0,0,1-17.447,0V8.362H34.533Zm8.724,0a4.361,4.361,0,0,1-4.362,4.362h-.763a12.933,12.933,0,0,0,.763-4.362V12.724h4.362Z" transform="translate(0.362 0.362)" fill="#fff"/>
    <path id="Path_17418" data-name="Path 17418" d="M0,0H52.342V52.342H0Z" fill="none"/>
  </g>
</svg>
