<svg id="Next_icon" data-name="Next icon" xmlns="http://www.w3.org/2000/svg" width="97.994" height="64.566" viewBox="0 0 97.994 64.566">
  <path id="Icon_ionic-ios-play" data-name="Icon ionic-ios-play" d="M9,8.422V69.637a1.576,1.576,0,0,0,2.361,1.453L59.885,40.483a1.734,1.734,0,0,0,0-2.885L11.361,6.99A1.561,1.561,0,0,0,9,8.422Z" transform="translate(-9 -6.751)" fill="#fff"/>
  <path id="Icon_ionic-ios-play-2" data-name="Icon ionic-ios-play" d="M9,8.422V69.637a1.576,1.576,0,0,0,2.361,1.453L59.885,40.483a1.734,1.734,0,0,0,0-2.885L11.361,6.99A1.561,1.561,0,0,0,9,8.422Z" transform="translate(37.338 -6.751)" fill="#fff"/>
</svg>
